<?xml version="1.0" standalone="no"?><!DOCTYPE svg PUBLIC "-//W3C//DTD SVG 1.1//EN" "http://www.w3.org/Graphics/SVG/1.1/DTD/svg11.dtd"><svg t="1571111120645" class="icon" viewBox="0 0 1024 1024" version="1.1" xmlns="http://www.w3.org/2000/svg" p-id="6721" xmlns:xlink="http://www.w3.org/1999/xlink" width="200" height="200"><defs><style type="text/css"></style></defs><path d="M511.936 451.968c185.344 0 335.488-86.784 335.488-193.792s-150.208-193.728-335.488-193.728-335.36 86.656-335.36 193.728c0 106.944 150.08 193.792 335.36 193.792z m0.128-334.656c152.768 0 293.632 71.552 293.632 132.096s-140.864 133.504-293.632 133.504c-152.832 0-293.568-73.024-293.568-133.504 0-60.608 140.736-132.096 293.568-132.096z m-0.128 415.296c-159.872 0-293.376-84.288-326.976-176.192a116.48 116.48 0 0 0-8.384 42.624c0 107.008 150.144 193.728 335.36 193.728 185.344 0 335.488-86.72 335.488-193.728a117.76 117.76 0 0 0-8.384-42.624c-33.664 91.904-167.104 176.192-327.104 176.192z m0 140.992c-152.576 0-281.152-94.784-321.728-187.968a119.04 119.04 0 0 0-13.632 54.336c0 106.944 150.144 193.664 335.36 193.664 185.344 0 335.488-86.72 335.488-193.664 0-18.944-4.928-37.056-13.632-54.336-40.576 93.184-169.216 187.968-321.856 187.968z m0 112.832c-159.872 0-293.376-84.224-326.976-176.128a116.352 116.352 0 0 0-8.384 42.496c0 107.072 150.144 193.792 335.36 193.792 185.344 0 335.488-86.72 335.488-193.792 0-14.592-3.072-28.736-8.384-42.496-33.664 91.904-167.104 176.128-327.104 176.128z m0 113.024c-159.872 0-293.376-84.288-326.976-176.192a116.352 116.352 0 0 0-8.384 42.496c0 107.136 150.144 193.792 335.36 193.792 185.344 0 335.488-86.656 335.488-193.792 0-14.592-3.072-28.736-8.384-42.496-33.664 91.84-167.104 176.192-327.104 176.192z m0 0" fill="#333333" p-id="6722"></path></svg>