<?xml version="1.0" standalone="no"?><!DOCTYPE svg PUBLIC "-//W3C//DTD SVG 1.1//EN" "http://www.w3.org/Graphics/SVG/1.1/DTD/svg11.dtd"><svg t="1571111332067" class="icon" viewBox="0 0 1024 1024" version="1.1" xmlns="http://www.w3.org/2000/svg" p-id="7199" xmlns:xlink="http://www.w3.org/1999/xlink" width="200" height="200"><defs><style type="text/css"></style></defs><path d="M240.64 338.773333c-5.973333 0-10.24-4.266667-10.24-10.24V170.666667c0-2.56 0.853333-5.12 3.413333-6.826667 1.706667-1.706667 4.266667-3.413333 6.826667-3.413333l474.453333 0.853333c5.973333 0 10.24 4.266667 10.24 10.24v157.866667c0 2.56-0.853333 5.12-3.413333 6.826666-1.706667 1.706667-4.266667 3.413333-6.826667 3.413334l-474.453333-0.853334z m464.213333-19.626666V181.76l-453.973333-0.853333v137.386666l453.973333 0.853334z" p-id="7200"></path><path d="M552.96 260.266667c-5.973333 0-10.24-4.266667-10.24-10.24s4.266667-10.24 10.24-10.24h103.253333c5.973333 0 10.24 4.266667 10.24 10.24s-4.266667 10.24-10.24 10.24H552.96z" p-id="7201"></path><path d="M753.493333 1009.493333c-58.026667 0-114.346667-21.333333-158.72-59.733333H212.48c-16.213333 0-31.573333-6.826667-43.52-17.92-11.946667-11.946667-17.92-27.306667-17.92-43.52V135.68c0-34.133333 27.306667-61.44 61.44-61.44H742.4c16.213333 0 31.573333 6.826667 43.52 17.92 11.946667 11.946667 17.92 27.306667 17.92 43.52v397.653333c110.08 23.893333 189.44 122.88 189.44 235.52 0.853333 133.12-107.52 240.64-239.786667 240.64z m0-460.8c-121.173333 0-220.16 98.986667-220.16 220.16s98.986667 220.16 220.16 220.16 220.16-98.986667 220.16-220.16-98.986667-220.16-220.16-220.16z m-581.973333 339.626667c0 11.093333 4.266667 21.333333 11.946667 29.013333s17.92 11.946667 29.013333 11.946667h360.96c-17.92-19.626667-32.426667-42.666667-42.666667-67.413333H359.253333h-119.466666c-5.973333 0-10.24-4.266667-10.24-10.24V495.786667c0-2.56 0.853333-5.12 3.413333-6.826667 1.706667-1.706667 4.266667-3.413333 6.826667-3.413333l474.453333 0.853333c5.973333 0 10.24 4.266667 10.24 10.24v34.133333c9.386667-0.853333 18.773333-1.706667 28.16-1.706666 10.24 0 20.48 0.853333 30.72 1.706666V423.253333H172.373333l-0.853333 465.066667z m352.426667-46.933333c-7.68-23.893333-11.093333-47.786667-11.093334-72.533334 0-6.826667 0-14.506667 0.853334-22.186666h-25.6v94.72h35.84z m-56.32 0V746.666667H369.493333v94.72h98.133334z m-118.613334 0V746.666667H250.88v94.72h98.133333z m167.253334-115.2c6.826667-34.986667 21.333333-69.12 41.813333-98.133334h-69.973333v98.133334h28.16z m-48.64 0V628.053333H369.493333v98.133334h98.133334z m-118.613334 0V628.053333H250.88v98.133334h98.133333z m226.133334-118.613334c3.413333-4.266667 7.68-7.68 11.946666-11.946666V506.026667H488.96v101.546666h86.186667z m-107.52 0V506.026667H369.493333v101.546666h98.133334z m-118.613334 0V506.026667H250.88v101.546666h98.133333z m257.706667-29.013333c29.013333-22.186667 62.293333-37.546667 98.133333-45.226667v-26.453333H606.72v71.68z m177.493333-175.786667V136.533333c0-11.093333-4.266667-21.333333-11.946666-29.013333s-17.92-11.946667-29.013334-11.946667H213.333333c-22.186667 0-40.96 18.773333-40.96 40.96v266.24h611.84z" p-id="7202"></path><path d="M751.786667 863.573333c-5.973333 0-10.24-4.266667-10.24-10.24v-40.106666h-51.2c-5.973333 0-10.24-4.266667-10.24-10.24s4.266667-10.24 10.24-10.24h51.2v-27.306667h-51.2c-5.973333 0-10.24-4.266667-10.24-10.24s4.266667-10.24 10.24-10.24h51.2v-9.386667l-43.52-43.52c-1.706667-1.706667-3.413333-4.266667-3.413334-6.826666s0.853333-5.12 3.413334-6.826667 4.266667-3.413333 6.826666-3.413333 5.12 0.853333 6.826667 3.413333l39.253333 39.253333 39.253334-39.253333c1.706667-1.706667 4.266667-3.413333 6.826666-3.413333s5.12 0.853333 6.826667 3.413333 3.413333 4.266667 3.413333 6.826667-0.853333 5.12-3.413333 6.826666l-43.52 43.52v9.386667h52.906667c5.973333 0 10.24 4.266667 10.24 10.24s-4.266667 10.24-10.24 10.24h-52.906667v27.306667h52.906667c5.973333 0 10.24 4.266667 10.24 10.24s-4.266667 10.24-10.24 10.24h-52.906667v40.106666c1.706667 5.973333-2.56 10.24-8.533333 10.24z" p-id="7203"></path><path d="M753.493333 940.373333c-94.72 0-171.52-76.8-171.52-171.52 0-40.96 14.506667-81.066667 40.96-111.786666 1.706667-2.56 5.12-3.413333 7.68-3.413334 2.56 0 5.12 0.853333 6.826667 2.56 1.706667 1.706667 3.413333 4.266667 3.413333 6.826667 0 2.56-0.853333 5.12-2.56 7.68-23.04 27.306667-36.693333 62.293333-36.693333 98.133333 0 83.626667 68.266667 151.04 151.04 151.04 5.973333 0 10.24 4.266667 10.24 10.24s-4.266667 10.24-9.386667 10.24zM867.84 893.44c-2.56 0-5.12-0.853333-6.826667-3.413333-4.266667-4.266667-4.266667-10.24 0-14.506667 28.16-28.16 44.373333-66.56 44.373334-106.666667 0-83.626667-68.266667-151.04-151.04-151.04-9.386667 0-17.92 0.853333-27.306667 2.56H725.333333c-5.12 0-9.386667-3.413333-10.24-8.533333-0.853333-2.56 0-5.12 1.706667-7.68 1.706667-2.56 4.266667-3.413333 6.826667-4.266667 10.24-1.706667 20.48-2.56 30.72-2.56 94.72 0 171.52 76.8 171.52 171.52 0 46.08-17.92 88.746667-50.346667 121.173334-2.56 2.56-5.12 3.413333-7.68 3.413333z" p-id="7204"></path></svg>