<?xml version="1.0" standalone="no"?><!DOCTYPE svg PUBLIC "-//W3C//DTD SVG 1.1//EN" "http://www.w3.org/Graphics/SVG/1.1/DTD/svg11.dtd"><svg t="1571111436392" class="icon" viewBox="0 0 1024 1024" version="1.1" xmlns="http://www.w3.org/2000/svg" p-id="8545" xmlns:xlink="http://www.w3.org/1999/xlink" width="200" height="200"><defs><style type="text/css"></style></defs><path d="M921.6 288.085333h-819.2A102.4 102.4 0 0 0 0 390.485333v531.114667A102.4 102.4 0 0 0 102.4 1024h819.2a102.4 102.4 0 0 0 102.4-102.4V390.485333a102.4 102.4 0 0 0-102.4-102.4z m34.133333 633.514667a34.133333 34.133333 0 0 1-34.133333 34.133333h-819.2a34.133333 34.133333 0 0 1-34.133333-34.133333V390.485333a34.133333 34.133333 0 0 1 34.133333-34.133333h819.2a34.133333 34.133333 0 0 1 34.133333 34.133333z" fill="" p-id="8546"></path><path d="M648.533333 653.994667H546.133333V614.4h79.872a34.133333 34.133333 0 1 0 0-68.266667h-33.450666l49.152-50.517333a34.133333 34.133333 0 1 0-49.152-47.786667L512 530.432 430.762667 447.146667a34.133333 34.133333 0 0 0-49.152 47.786666l49.834666 51.2h-33.450666a34.133333 34.133333 0 1 0 0 68.266667H477.866667v40.277333H375.466667a34.133333 34.133333 0 1 0 0 68.266667H477.866667v119.466667a34.133333 34.133333 0 0 0 68.266666 0v-120.149334h102.4a34.133333 34.133333 0 1 0 0-68.266666zM104.448 216.405333h819.2a34.133333 34.133333 0 0 0 0-68.266666h-819.2a34.133333 34.133333 0 0 0 0 68.266666zM170.666667 68.266667h682.666666a34.133333 34.133333 0 0 0 0-68.266667h-682.666666a34.133333 34.133333 0 0 0 0 68.266667z" fill="" p-id="8547"></path></svg>